<?xml version="1.0" encoding="UTF-8" standalone="no"?>
<!DOCTYPE svg PUBLIC "-//W3C//DTD SVG 20010904//EN"
              "http://www.w3.org/TR/2001/REC-SVG-20010904/DTD/svg10.dtd">

<svg xmlns="http://www.w3.org/2000/svg"
     width="380.952mm" height="380.952mm"
     viewBox="0 0 1080 1080">
  <path fill="black" stroke="none" stroke-width="0"
        d="M 474.00,547.00
           C 474.00,547.00 474.00,111.00 474.00,111.00
             474.01,107.90 473.79,104.87 475.16,102.00
             475.91,100.42 477.48,98.37 478.62,97.02
             486.47,87.70 497.36,92.66 501.26,103.00
             502.14,105.31 502.00,108.52 502.00,111.00
             502.00,111.00 502.00,759.00 502.00,759.00
             502.00,759.00 526.00,752.28 526.00,752.28
             528.75,751.45 534.43,749.27 537.00,749.32
             540.27,749.39 547.28,753.79 549.01,756.52
             549.91,757.94 549.92,759.40 549.98,761.01
             550.25,767.86 549.41,769.52 545.37,775.00
             543.60,777.40 541.24,780.70 538.91,782.49
             535.54,785.08 520.00,789.67 515.00,791.33
             509.29,793.24 501.84,797.11 496.00,794.59
             496.00,794.59 451.00,767.90 451.00,767.90
             451.00,767.90 419.00,756.42 419.00,756.42
             415.48,755.11 408.91,753.32 406.17,751.30
             406.17,751.30 396.00,741.00 396.00,741.00
             396.00,741.00 353.00,696.41 353.00,696.41
             353.00,696.41 335.00,687.42 335.00,687.42
             309.34,676.23 302.65,672.81 280.00,656.12
             276.68,653.67 264.88,645.77 263.57,642.70
             262.87,641.04 263.00,637.85 263.00,636.00
             263.00,636.00 263.00,317.00 263.00,317.00
             263.00,317.00 263.00,239.00 263.00,239.00
             263.01,232.05 263.02,231.38 267.85,226.02
             272.22,221.17 273.52,220.75 280.00,221.02
             285.55,221.25 291.51,226.86 293.40,232.00
             294.12,233.94 294.00,236.91 294.00,239.00
             294.00,239.00 294.00,531.00 294.00,531.00
             294.00,531.00 294.00,620.00 294.00,620.00
             294.00,622.44 293.79,625.66 295.02,627.82
             296.49,630.39 301.44,633.29 304.00,635.00
             304.00,635.00 325.00,649.00 325.00,649.00
             325.00,649.00 325.00,275.00 325.00,275.00
             325.00,272.83 324.89,270.05 325.56,268.00
             327.82,261.05 336.98,252.53 344.96,255.60
             347.56,256.60 349.36,258.97 351.15,261.00
             352.45,262.48 354.11,264.24 354.98,266.00
             356.20,268.46 355.99,271.33 356.00,274.00
             356.00,274.00 356.00,656.00 356.00,656.00
             356.00,658.26 355.78,661.68 357.02,663.61
             358.65,666.14 366.03,668.73 369.00,670.00
             378.54,674.09 380.49,673.81 387.00,682.00
             387.00,682.00 387.00,487.00 387.00,487.00
             387.00,487.00 387.00,354.00 387.00,354.00
             387.00,354.00 387.00,191.00 387.00,191.00
             387.01,187.63 386.77,185.09 388.43,182.00
             389.86,179.32 394.48,173.74 397.28,172.57
             405.16,169.30 413.80,175.70 416.41,183.00
             417.12,184.99 417.00,187.87 417.00,190.00
             417.00,190.00 417.00,602.00 417.00,602.00
             417.00,602.00 417.00,711.00 417.00,711.00
             417.00,713.21 416.78,716.71 418.02,718.58
             419.42,720.68 422.72,721.56 425.00,722.33
             430.81,724.30 438.08,727.09 444.00,728.00
             444.00,728.00 444.00,555.00 444.00,555.00
             444.00,552.91 443.88,549.94 444.60,548.00
             447.18,540.99 456.04,534.39 463.72,537.57
             466.16,538.58 471.84,544.84 474.00,547.00 Z
           M 587.42,96.99
           C 595.50,93.96 603.05,98.85 605.49,107.00
             606.09,109.00 606.00,111.88 606.00,114.00
             606.00,114.00 606.00,160.00 606.00,160.00
             606.00,160.00 606.00,328.00 606.00,328.00
             606.00,328.00 606.00,361.00 606.00,361.00
             605.86,368.56 599.50,378.01 591.00,376.85
             585.88,376.15 579.72,368.81 578.11,364.00
             577.92,362.11 578.00,359.02 578.11,357.00
             578.11,357.00 578.11,165.00 578.11,165.00
             578.11,165.00 578.11,127.00 578.11,127.00
             578.00,113.37 575.37,106.51 587.42,96.99 Z
           M 644.00,727.00
           C 649.78,723.74 650.25,721.34 653.69,716.00
             659.61,706.81 662.98,705.27 663.00,694.00
             663.00,694.00 663.00,597.00 663.00,597.00
             663.00,597.00 663.00,191.00 663.00,191.00
             663.01,187.79 662.80,184.96 664.31,182.00
             665.67,179.35 670.53,173.71 673.28,172.57
             681.12,169.33 689.79,175.80 692.40,183.00
             693.12,184.96 693.00,187.89 693.00,190.00
             693.00,190.00 693.00,344.00 693.00,344.00
             693.00,344.00 693.00,470.00 693.00,470.00
             693.00,470.00 693.00,657.00 693.00,657.00
             693.00,657.00 724.00,652.00 724.00,652.00
             724.00,652.00 724.00,275.00 724.00,275.00
             724.00,272.83 723.89,270.05 724.56,268.00
             726.82,261.05 735.98,252.53 743.96,255.60
             746.56,256.60 748.36,258.97 750.15,261.00
             751.45,262.48 753.11,264.24 753.98,266.00
             755.20,268.46 754.99,271.33 755.00,274.00
             755.00,274.00 755.00,643.00 755.00,643.00
             755.00,643.00 776.00,633.31 776.00,633.31
             778.93,631.96 783.27,630.67 784.98,627.79
             786.20,625.72 786.00,622.37 786.00,620.00
             786.00,620.00 786.00,536.00 786.00,536.00
             786.00,536.00 786.00,240.00 786.00,240.00
             786.00,236.99 785.79,233.77 787.17,231.00
             793.96,217.44 809.84,217.66 816.69,231.00
             818.20,233.95 817.99,236.79 818.00,240.00
             818.00,240.00 818.00,635.00 818.00,635.00
             818.00,637.35 818.22,640.62 816.98,642.67
             815.19,645.63 799.91,654.08 796.00,656.40
             796.00,656.40 770.00,671.03 770.00,671.03
             770.00,671.03 719.00,683.02 719.00,683.02
             713.05,685.36 704.30,698.49 700.13,704.00
             700.13,704.00 660.33,755.90 660.33,755.90
             656.26,760.52 645.97,764.26 640.00,767.25
             640.00,767.25 604.00,784.31 604.00,784.31
             598.35,786.90 593.00,790.29 587.00,792.00
             585.31,789.66 582.90,786.85 582.35,784.00
             582.35,784.00 584.00,766.00 584.00,766.00
             584.00,766.00 584.00,742.00 584.00,742.00
             584.00,742.00 584.00,612.00 584.00,612.00
             584.01,609.37 583.85,606.47 584.85,604.00
             587.56,597.31 596.23,589.68 603.99,592.60
             607.01,593.74 610.70,598.53 614.00,601.00
             614.00,601.00 614.00,568.00 614.00,568.00
             614.16,559.60 620.25,552.01 629.00,552.01
             631.01,552.01 633.09,552.05 634.91,553.02
             636.64,553.95 637.99,555.57 639.27,557.02
             643.97,562.38 643.99,563.15 644.00,570.00
             644.00,570.00 644.00,727.00 644.00,727.00 Z
           M 230.00,705.00
           C 230.00,705.00 230.00,807.00 230.00,807.00
             229.99,809.65 230.19,812.57 228.98,815.00
             222.97,827.01 208.03,827.01 202.02,815.00
             200.81,812.57 201.01,809.65 201.00,807.00
             201.00,807.00 201.00,614.00 201.00,614.00
             201.00,614.00 201.00,285.00 201.00,285.00
             201.00,285.00 201.00,203.00 201.00,203.00
             201.15,195.14 208.20,184.95 217.00,186.15
             221.74,186.80 227.86,193.66 229.41,198.00
             230.12,199.99 230.00,202.87 230.00,205.00
             230.00,205.00 230.00,653.00 230.00,653.00
             230.00,655.09 229.88,658.06 230.60,660.00
             232.33,664.70 243.80,673.83 248.00,678.00
             248.00,678.00 270.00,698.04 270.00,698.04
             270.00,698.04 322.00,722.31 322.00,722.31
             334.63,728.11 337.31,733.95 346.15,744.00
             346.15,744.00 376.58,779.00 376.58,779.00
             376.58,779.00 393.09,797.58 393.09,797.58
             397.17,800.88 414.02,805.17 420.00,807.02
             420.00,807.02 479.00,825.02 479.00,825.02
             479.00,825.02 515.00,836.14 515.00,836.14
             523.18,838.50 532.57,840.37 539.00,846.10
             545.53,851.92 554.82,861.68 547.65,870.70
             546.81,871.76 546.16,872.32 544.79,872.52
             542.57,872.85 529.01,868.60 526.00,867.66
             526.00,867.66 464.00,849.34 464.00,849.34
             464.00,849.34 402.00,831.14 402.00,831.14
             396.42,829.55 376.80,824.37 373.29,821.49
             373.29,821.49 358.12,803.00 358.12,803.00
             358.12,803.00 333.65,772.00 333.65,772.00
             330.48,767.90 322.55,757.23 318.96,754.49
             315.97,752.21 302.29,746.45 298.00,744.58
             298.00,744.58 273.00,733.30 273.00,733.30
             273.00,733.30 256.00,725.73 256.00,725.73
             247.51,721.38 238.16,711.17 230.00,705.00 Z
           M 861.09,186.74
           C 868.22,184.96 870.66,186.52 875.24,192.00
             877.06,194.18 878.81,196.20 879.89,199.00
             880.08,200.87 880.00,204.00 879.89,206.00
             879.89,206.00 879.89,297.00 879.89,297.00
             879.89,297.00 879.89,671.00 879.89,671.00
             880.00,673.41 880.22,676.58 878.98,678.70
             877.27,681.64 861.80,692.46 858.00,695.42
             852.18,699.95 837.03,712.39 831.00,714.53
             831.00,714.53 814.00,719.42 814.00,719.42
             814.00,719.42 783.00,728.29 783.00,728.29
             778.84,729.49 765.96,732.69 763.10,734.72
             759.46,737.31 755.27,745.85 752.80,750.00
             752.80,750.00 736.42,778.00 736.42,778.00
             734.37,781.54 729.07,791.26 726.62,793.73
             723.78,796.60 715.97,799.46 712.00,801.15
             712.00,801.15 680.00,814.72 680.00,814.72
             675.67,816.59 668.68,818.91 665.51,822.22
             665.51,822.22 650.12,843.00 650.12,843.00
             650.12,843.00 613.42,893.00 613.42,893.00
             613.42,893.00 590.68,923.90 590.68,923.90
             586.24,928.69 566.00,937.74 559.00,941.25
             559.00,941.25 502.00,969.42 502.00,969.42
             502.00,969.42 484.00,977.89 484.00,977.89
             478.10,979.06 472.96,972.44 473.61,967.00
             474.55,959.08 481.78,950.26 488.01,945.63
             488.01,945.63 513.00,931.69 513.00,931.69
             513.00,931.69 553.00,909.86 553.00,909.86
             558.90,906.59 572.62,899.94 576.83,895.82
             576.83,895.82 595.14,871.00 595.14,871.00
             595.14,871.00 630.29,822.00 630.29,822.00
             633.61,817.36 645.98,799.19 649.18,796.65
             651.47,794.83 661.72,790.56 665.00,789.15
             665.00,789.15 693.00,777.00 693.00,777.00
             696.61,775.45 705.19,771.93 707.82,769.61
             711.00,766.79 715.78,758.04 718.20,754.00
             718.20,754.00 736.40,724.00 736.40,724.00
             738.16,721.07 743.53,711.52 745.61,709.72
             747.67,707.93 752.30,706.90 755.00,706.14
             755.00,706.14 775.00,700.58 775.00,700.58
             775.00,700.58 814.00,689.45 814.00,689.45
             818.26,687.47 827.82,679.34 832.00,676.00
             836.21,672.64 847.72,664.52 849.40,660.00
             850.11,658.08 850.00,655.07 850.00,653.00
             850.00,653.00 850.00,302.00 850.00,302.00
             850.00,302.00 850.00,220.00 850.00,220.00
             850.00,206.40 847.14,194.84 861.09,186.74 Z
           M 536.04,267.65
           C 539.72,266.91 542.74,266.73 545.77,269.43
             550.51,273.63 550.46,283.37 543.00,286.26
             531.19,290.83 522.51,273.82 536.04,267.65 Z
           M 545.00,400.47
           C 570.05,397.51 573.92,432.76 551.00,436.67
             535.54,439.31 524.65,422.24 532.36,409.01
             535.39,403.83 539.40,401.83 545.00,400.47 Z
           M 587.00,491.64
           C 591.82,490.67 597.40,490.53 602.00,492.53
             622.63,501.49 614.80,533.49 592.00,531.90
             570.11,530.38 564.94,499.96 587.00,491.64 Z
           M 540.00,536.48
           C 546.73,535.66 553.30,538.03 556.99,544.02
             562.70,553.25 558.05,566.53 547.00,568.66
             524.55,572.98 517.92,542.36 540.00,536.48 Z
           M 541.00,654.31
           C 543.20,654.17 544.73,653.93 547.00,654.31
             568.49,655.67 568.57,690.03 544.00,688.96
             524.54,688.11 520.60,660.63 541.00,654.31 Z
           M 850.00,770.00
           C 850.00,770.00 805.00,782.71 805.00,782.71
             800.44,784.02 789.66,786.28 786.63,789.42
             786.63,789.42 777.15,805.00 777.15,805.00
             777.15,805.00 760.20,834.00 760.20,834.00
             757.96,837.76 753.89,845.86 750.79,848.30
             748.63,850.01 739.12,853.81 736.00,855.15
             736.00,855.15 707.00,867.58 707.00,867.58
             700.94,870.12 694.08,871.90 689.67,877.05
             689.67,877.05 636.15,950.00 636.15,950.00
             636.15,950.00 613.83,979.61 613.83,979.61
             610.14,982.85 595.18,989.55 590.00,991.86
             590.00,991.86 561.00,1006.25 561.00,1006.25
             561.00,1006.25 526.00,1023.37 526.00,1023.37
             526.00,1023.37 510.00,1025.00 510.00,1025.00
             510.00,1025.00 506.00,1025.00 506.00,1025.00
             501.96,1024.98 494.41,1024.20 492.04,1020.37
             489.93,1016.97 494.51,1009.09 497.21,1006.95
             497.21,1006.95 527.00,990.74 527.00,990.74
             527.00,990.74 577.00,963.86 577.00,963.86
             582.22,960.97 598.43,953.02 601.83,949.79
             601.83,949.79 619.42,926.00 619.42,926.00
             619.42,926.00 655.14,876.00 655.14,876.00
             655.14,876.00 672.46,852.13 672.46,852.13
             676.27,848.07 684.77,845.10 690.00,842.85
             690.00,842.85 720.00,829.77 720.00,829.77
             720.00,829.77 731.91,824.19 731.91,824.19
             735.96,821.32 740.49,812.51 743.20,808.00
             743.20,808.00 761.20,778.00 761.20,778.00
             762.99,775.01 768.54,765.46 770.61,763.51
             773.64,760.64 785.47,758.30 790.00,757.00
             790.00,757.00 839.00,743.03 839.00,743.03
             843.80,740.86 860.95,724.66 866.00,720.07
             870.86,715.66 874.25,711.54 881.00,711.00
             879.23,720.87 880.00,736.47 880.00,747.00
             880.00,747.00 880.00,809.00 880.00,809.00
             880.00,811.11 880.12,814.04 879.40,816.00
             878.28,819.08 873.06,825.21 869.96,826.40
             862.10,829.43 853.28,823.29 850.60,816.00
             849.95,814.23 850.01,811.88 850.00,810.00
             850.00,810.00 850.00,770.00 850.00,770.00 Z
           M 248.00,746.32
           C 253.16,746.31 269.48,754.99 275.00,757.75
             280.69,760.60 293.75,766.53 297.99,770.21
             297.99,770.21 311.15,785.00 311.15,785.00
             311.15,785.00 342.42,821.00 342.42,821.00
             342.42,821.00 359.04,839.58 359.04,839.58
             362.72,842.48 367.60,843.40 372.00,844.72
             372.00,844.72 394.00,851.34 394.00,851.34
             394.00,851.34 483.00,878.28 483.00,878.28
             483.00,878.28 506.00,885.14 506.00,885.14
             508.26,885.79 516.04,887.98 517.63,889.14
             521.20,891.87 520.42,898.51 517.63,901.56
             512.41,907.45 504.39,908.44 497.00,909.56
             490.28,910.58 483.46,907.57 477.00,905.71
             477.00,905.71 437.00,893.72 437.00,893.72
             437.00,893.72 372.00,874.42 372.00,874.42
             372.00,874.42 352.00,868.42 352.00,868.42
             348.70,867.46 342.76,866.12 340.09,864.28
             336.83,862.02 330.09,852.63 327.20,849.00
             327.20,849.00 301.88,817.00 301.88,817.00
             298.28,812.32 287.94,798.62 283.96,795.63
             283.96,795.63 263.00,785.04 263.00,785.04
             257.69,781.58 253.39,775.64 249.00,771.00
             245.59,767.39 238.88,757.68 240.67,752.30
             241.66,749.32 245.34,747.44 248.00,746.32 Z" />
</svg>
